<?xml version="1.0" encoding="UTF-8"?><svg id="Layer_2" xmlns="http://www.w3.org/2000/svg" viewBox="0 0 46.1 46.1"><g id="Layer_1-2"><path d="M23.1,2c11.6,0,21.1,9.4,21.1,21.1s-9.4,21.1-21.1,21.1S2,34.7,2,23.1,11.4,2,23.1,2M23.1,0C10.3,0,0,10.3,0,23.1s10.3,23.1,23.1,23.1,23.1-10.3,23.1-23.1S35.8,0,23.1,0h0Z"/><polyline points="34.1 34.1 12 34.1 12 12" fill="none" stroke="#000" stroke-linecap="round" stroke-miterlimit="10" stroke-width="2"/><polyline points="12 34.1 17.9 25.3 22.9 28.1 23.2 17.1 27.9 18.8 33.2 13.2" fill="none" stroke="#000" stroke-linecap="round" stroke-miterlimit="10" stroke-width="2"/><line x1="33.2" y1="13.2" x2="33.2" y2="17.8" fill="none" stroke="#000" stroke-linecap="round" stroke-miterlimit="10" stroke-width="2"/><line x1="33.2" y1="13.2" x2="28.5" y2="13.2" fill="none" stroke="#000" stroke-linecap="round" stroke-miterlimit="10" stroke-width="2"/></g></svg>