<?xml version="1.0" encoding="UTF-8"?><svg id="Layer_2" xmlns="http://www.w3.org/2000/svg" viewBox="0 0 46.1 46.1"><g id="Layer_1-2"><path d="M23.1,2c11.6,0,21.1,9.4,21.1,21.1s-9.4,21.1-21.1,21.1S2,34.7,2,23.1,11.4,2,23.1,2M23.1,0C10.3,0,0,10.3,0,23.1s10.3,23.1,23.1,23.1,23.1-10.3,23.1-23.1S35.8,0,23.1,0h0Z"/><line x1="14.2" y1="8.6" x2="14.2" y2="37.5" fill="none" stroke="#000" stroke-linecap="round" stroke-miterlimit="10" stroke-width="2"/><line x1="23.1" y1="4.9" x2="23.1" y2="41.2" fill="none" stroke="#000" stroke-linecap="round" stroke-miterlimit="10" stroke-width="2"/><line x1="31.9" y1="8.6" x2="31.9" y2="37.5" fill="none" stroke="#000" stroke-linecap="round" stroke-miterlimit="10" stroke-width="2"/><line x1="41.2" y1="23.1" x2="4.9" y2="23.1" fill="none" stroke="#000" stroke-linecap="round" stroke-miterlimit="10" stroke-width="2"/><line x1="37.5" y1="14.2" x2="8.6" y2="14.2" fill="none" stroke="#000" stroke-linecap="round" stroke-miterlimit="10" stroke-width="2"/><line x1="37.5" y1="31.9" x2="8.6" y2="31.9" fill="none" stroke="#000" stroke-linecap="round" stroke-miterlimit="10" stroke-width="2"/></g></svg>