<?xml version="1.0" encoding="UTF-8"?><svg id="Layer_2" xmlns="http://www.w3.org/2000/svg" viewBox="0 0 52.3 52.3"><g id="Layer_1-2"><path d="M26.1,2c13.3,0,24.1,10.8,24.1,24.1s-10.8,24.1-24.1,24.1S2,39.4,2,26.1,12.8,2,26.1,2M26.1,0C11.7,0,0,11.7,0,26.1s11.7,26.1,26.1,26.1,26.1-11.7,26.1-26.1S40.6,0,26.1,0h0Z"/><path d="M26.1,14.1c.6,0,1,.5,1,1s-.5,1-1,1-1-.5-1-1,.5-1,1-1M26.1,12.1c-1.7,0-3,1.4-3,3s1.4,3,3,3,3-1.4,3-3-1.4-3-3-3h0Z"/><path d="M26.1,24c.6,0,1,.5,1,1v15.4c0,.6-.5,1-1,1s-1-.5-1-1v-15.4c0-.6.5-1,1-1M26.1,22c-1.7,0-3,1.4-3,3v15.4c0,1.7,1.4,3,3,3s3-1.4,3-3v-15.4c0-1.7-1.4-3-3-3h0Z"/></g></svg>