<?xml version="1.0" encoding="UTF-8"?><svg id="Layer_2" xmlns="http://www.w3.org/2000/svg" viewBox="0 0 46.1 46.1"><g id="Layer_1-2"><path d="M23.1,2c11.6,0,21.1,9.4,21.1,21.1s-9.4,21.1-21.1,21.1S2,34.7,2,23.1,11.4,2,23.1,2M23.1,0C10.3,0,0,10.3,0,23.1s10.3,23.1,23.1,23.1,23.1-10.3,23.1-23.1S35.8,0,23.1,0h0Z"/><path d="M9.9,17.3s-.5-5.1,5.1-5.1,4.4,1.8,4.4,4.2c0,4.3-5.2,5.1-5.2,5.2s6.9-.3,6.9,5.7c0,0,0,5.4-5.7,6s-6.9-1.3-6.9-4.9" fill="none" stroke="#000" stroke-linecap="round" stroke-miterlimit="10" stroke-width="2"/><path d="M25.9,12.5v20.6c0,.7,12.5,1.3,12.5-10.2s-12.5-11-12.5-10.4Z" fill="none" stroke="#000" stroke-linecap="round" stroke-miterlimit="10" stroke-width="2"/></g></svg>